<svg width="25" height="24" viewBox="0 0 25 24" fill="none" xmlns="http://www.w3.org/2000/svg">
<rect x="3.35986" y="2.99658" width="18.0075" height="18.0075" rx="4" stroke="white" stroke-width="1.6" stroke-linecap="round" stroke-linejoin="round"/>
<path fill-rule="evenodd" clip-rule="evenodd" d="M9.43637 9.10585L7.94975 10.2913C7.61452 10.5591 7.40895 10.9567 7.38433 11.385C7.35971 11.8133 7.51836 12.2319 7.82069 12.5363L8.8001 13.5207C9.1025 13.8249 9.52014 13.9858 9.94846 13.9633C10.3768 13.9408 10.7752 13.7369 11.044 13.4026L12.2365 11.921C12.5464 11.5359 12.8977 11.186 13.284 10.8776L14.7706 9.6921C15.1061 9.42455 15.3119 9.02686 15.3365 8.59845C15.3611 8.17004 15.2023 7.75139 14.8996 7.44716L13.9202 6.46275C13.6178 6.15858 13.2002 5.99762 12.7719 6.02015C12.3436 6.04268 11.9451 6.24658 11.6763 6.5808L10.4848 8.06242C10.1748 8.44778 9.8232 8.79771 9.43637 9.10585V9.10585Z" stroke="white" stroke-width="1.6" stroke-linecap="round" stroke-linejoin="round"/>
<path d="M11.0128 17.0022H7.36133" stroke="white" stroke-width="1.6" stroke-linecap="round" stroke-linejoin="round"/>
<path d="M13.6988 10.5464L17.7795 14.0008C18.2653 14.4135 18.4815 15.0618 18.3408 15.6835C18.2 16.3051 17.7255 16.797 17.1093 16.9601C16.4932 17.1232 15.8374 16.9304 15.4075 16.4598L11.79 12.4742" stroke="white" stroke-width="1.6" stroke-linecap="round" stroke-linejoin="round"/>
</svg>
