<svg width="25" height="24" viewBox="0 0 25 24" fill="none" xmlns="http://www.w3.org/2000/svg">
<path d="M5.37001 20.2259H17.7345L17.1439 18.3139L18.5565 19.5262L19.8511 20.6864L22.2097 22.6574V3.99234C22.1508 2.83212 21.1518 1.84619 19.9136 1.84619L5.37435 1.84879C4.13695 1.84879 3.13281 2.83646 3.13281 3.99668V18.0789C3.13281 19.3024 4.13522 20.2259 5.37001 20.2259ZM14.5165 6.77411L14.4879 6.78451L14.4983 6.77411H14.5165ZM7.89944 7.8745C9.48889 6.71774 10.9622 6.77324 10.9622 6.77324L11.0809 6.8903C9.13597 7.35422 8.2541 8.22308 8.2541 8.22308C8.2541 8.22308 8.48996 8.10776 8.90184 7.93173C11.5215 6.90157 14.3821 6.97615 17.0303 8.28031C17.0303 8.28031 16.1467 7.46781 14.3214 6.94753L14.4827 6.78885C14.735 6.78971 16.0704 6.83654 17.4995 7.88143C17.4995 7.88143 19.0985 10.6129 19.0985 13.9687C19.0456 13.9045 18.1065 15.4133 15.6898 15.4654C15.6898 15.4654 15.2805 15.0023 14.9891 14.5982C16.4025 14.1924 16.9315 13.3808 16.9315 13.3808C16.4676 13.673 16.0444 13.8464 15.701 14.0199C15.1729 14.2523 14.644 14.3667 14.1159 14.4838C11.6151 14.8896 10.2112 14.2106 8.8845 13.6721L8.43099 13.4415C8.43099 13.4415 8.95908 14.2531 10.3161 14.6589C9.95975 15.0656 9.60682 15.5278 9.60682 15.5278C7.19099 15.4706 6.30999 13.9618 6.30999 13.9618C6.30999 10.6008 7.89944 7.8745 7.89944 7.8745Z" fill="white"/>
<path d="M14.6723 12.9202C15.2888 12.9202 15.7909 12.3999 15.7909 11.7582C15.7909 11.1209 15.2914 10.6006 14.6723 10.6006V10.6032C14.0584 10.6032 13.5554 11.1217 13.5537 11.7634C13.5537 12.3999 14.0558 12.9202 14.6723 12.9202Z" fill="white"/>
<path d="M10.6679 12.9202C11.2844 12.9202 11.7865 12.3999 11.7865 11.7582C11.7865 11.1209 11.2879 10.6006 10.6714 10.6006L10.6679 10.6032C10.0514 10.6032 9.54932 11.1217 9.54932 11.7634C9.54932 12.3999 10.0514 12.9202 10.6679 12.9202Z" fill="white"/>
</svg>
