<svg width="16" height="16" viewBox="0 0 16 16" fill="none" xmlns="http://www.w3.org/2000/svg">
<path d="M7.78174 15.1826C6.76123 15.1826 5.79932 14.9873 4.896 14.5967C3.99756 14.2061 3.2041 13.6665 2.51562 12.978C1.82715 12.2896 1.2876 11.4961 0.896973 10.5977C0.506348 9.69434 0.311035 8.73242 0.311035 7.71191C0.311035 6.69141 0.506348 5.73193 0.896973 4.8335C1.2876 3.93018 1.82471 3.13428 2.5083 2.4458C3.19678 1.75732 3.99023 1.21777 4.88867 0.827148C5.79199 0.436523 6.75391 0.241211 7.77441 0.241211C8.79492 0.241211 9.75684 0.436523 10.6602 0.827148C11.5635 1.21777 12.3594 1.75732 13.0479 2.4458C13.7363 3.13428 14.2759 3.93018 14.6665 4.8335C15.0571 5.73193 15.2524 6.69141 15.2524 7.71191C15.2524 8.73242 15.0571 9.69434 14.6665 10.5977C14.2759 11.4961 13.7363 12.2896 13.0479 12.978C12.3594 13.6665 11.5635 14.2061 10.6602 14.5967C9.76172 14.9873 8.80225 15.1826 7.78174 15.1826ZM7.78174 13.9375C8.646 13.9375 9.4541 13.7764 10.2061 13.4541C10.958 13.1318 11.6196 12.6875 12.1909 12.1211C12.7622 11.5498 13.2065 10.8882 13.5239 10.1362C13.8462 9.38428 14.0073 8.57617 14.0073 7.71191C14.0073 6.84766 13.8462 6.03955 13.5239 5.2876C13.2017 4.53564 12.7549 3.87402 12.1836 3.30273C11.6172 2.73145 10.9556 2.28711 10.1987 1.96973C9.44678 1.64746 8.63867 1.48633 7.77441 1.48633C6.91016 1.48633 6.10205 1.64746 5.3501 1.96973C4.59814 2.28711 3.93896 2.73145 3.37256 3.30273C2.80615 3.87402 2.36182 4.53564 2.03955 5.2876C1.72217 6.03955 1.56348 6.84766 1.56348 7.71191C1.56348 8.57617 1.72217 9.38428 2.03955 10.1362C2.36182 10.8882 2.80615 11.5498 3.37256 12.1211C3.94385 12.6875 4.60547 13.1318 5.35742 13.4541C6.10938 13.7764 6.91748 13.9375 7.78174 13.9375Z" fill="white" fill-opacity="0.24"/>
</svg>
