<svg width="16" height="17" viewBox="0 0 16 17" fill="none" xmlns="http://www.w3.org/2000/svg">
<path d="M8.04541 16.4463C6.98584 16.4463 5.98975 16.2437 5.05713 15.8384C4.12451 15.438 3.30176 14.8813 2.58887 14.1685C1.87598 13.4604 1.31689 12.6401 0.911621 11.7075C0.51123 10.7749 0.311035 9.77637 0.311035 8.71191C0.311035 7.65234 0.51123 6.65625 0.911621 5.72363C1.31689 4.79102 1.87354 3.96826 2.58154 3.25537C3.29443 2.54248 4.11719 1.98584 5.0498 1.58545C5.9873 1.18018 6.98584 0.977539 8.04541 0.977539C9.10498 0.977539 10.1011 1.18018 11.0337 1.58545C11.9712 1.98584 12.7939 2.54248 13.502 3.25537C14.2148 3.96826 14.7739 4.79102 15.1792 5.72363C15.5845 6.65625 15.7871 7.65234 15.7871 8.71191C15.7871 9.77637 15.5845 10.7749 15.1792 11.7075C14.7739 12.6401 14.2148 13.4604 13.502 14.1685C12.7939 14.8813 11.9736 15.438 11.041 15.8384C10.1084 16.2437 9.10986 16.4463 8.04541 16.4463ZM7.23975 12.3813C7.40088 12.3813 7.54736 12.3447 7.6792 12.2715C7.81592 12.1934 7.93311 12.0835 8.03076 11.9419L11.4365 6.7417C11.4951 6.64893 11.5415 6.55371 11.5757 6.45605C11.6147 6.3584 11.6343 6.26318 11.6343 6.17041C11.6343 5.9458 11.5488 5.76025 11.3779 5.61377C11.2119 5.46729 11.019 5.39404 10.7993 5.39404C10.5112 5.39404 10.2695 5.55029 10.0742 5.86279L7.2251 10.3965L5.94336 8.8291C5.8457 8.70703 5.74316 8.61914 5.63574 8.56543C5.5332 8.51172 5.41357 8.48486 5.27686 8.48486C5.05713 8.48486 4.8667 8.56543 4.70557 8.72656C4.54443 8.88281 4.46387 9.07324 4.46387 9.29785C4.46387 9.40527 4.4834 9.50781 4.52246 9.60547C4.56152 9.70312 4.62256 9.80322 4.70557 9.90576L6.41943 11.9565C6.53662 12.0981 6.66113 12.2056 6.79297 12.2788C6.9248 12.3472 7.07373 12.3813 7.23975 12.3813Z" fill="white" fill-opacity="0.8"/>
</svg>
