<svg width="858" height="155" viewBox="0 0 858 155" fill="none" xmlns="http://www.w3.org/2000/svg">
<circle cx="89.7039" cy="51.8099" r="6.42265" fill="#FFB800"/>
<path d="M809.611 153.974C802.503 153.974 795.695 153.032 789.187 151.148C782.679 149.264 777.455 146.866 773.516 143.954L781.994 127.898C786.104 130.895 790.728 133.207 795.866 134.834C801.005 136.461 806.271 137.275 811.666 137.275C817.404 137.275 821.942 136.333 825.282 134.449C828.622 132.565 830.292 129.996 830.292 126.742C830.292 124.087 828.965 122.074 826.31 120.704C823.655 119.248 819.416 117.707 813.593 116.08C807.77 114.367 803.017 112.74 799.335 111.199C795.652 109.572 792.441 107.174 789.701 104.005C787.046 100.837 785.719 96.6408 785.719 91.417C785.719 85.3369 787.389 79.9847 790.728 75.3604C794.154 70.7361 798.949 67.1822 805.115 64.6988C811.366 62.2153 818.603 60.9736 826.824 60.9736C832.904 60.9736 838.641 61.6587 844.036 63.0289C849.431 64.3134 854.056 66.1974 857.909 68.6808L850.074 84.609C846.734 82.2968 842.966 80.5841 838.77 79.4709C834.574 78.272 830.206 77.6725 825.668 77.6725C819.759 77.6725 815.092 78.7001 811.666 80.7554C808.241 82.8106 806.528 85.4653 806.528 88.7195C806.528 90.6891 807.256 92.359 808.712 93.7292C810.168 95.0137 812.009 96.0841 814.235 96.9405C816.462 97.7112 819.587 98.6532 823.612 99.7664C829.35 101.308 834.06 102.892 837.742 104.519C841.424 106.061 844.55 108.373 847.119 111.456C849.774 114.453 851.101 118.435 851.101 123.402C851.101 129.568 849.389 134.963 845.963 139.587C842.538 144.126 837.699 147.679 831.448 150.249C825.197 152.732 817.918 153.974 809.611 153.974Z" fill="#FFB800"/>
<path d="M718.85 79.2131L714.996 98.7379H756.744L753.532 114.923H711.657L707.546 135.732H756.615L753.147 152.431H683.525L701.509 62.5142H769.461L765.992 79.2131H718.85Z" fill="#FFB800"/>
<path d="M615.421 62.5142H636.359L621.716 135.475H666.803L663.334 152.431H597.438L615.421 62.5142Z" fill="#FFB800"/>
<path d="M527.122 153.974C518.13 153.974 510.337 152.347 503.743 149.092C497.149 145.838 492.097 141.257 488.586 135.348C485.075 129.439 483.319 122.631 483.319 114.924C483.319 104.733 485.632 95.5703 490.256 87.435C494.966 79.214 501.517 72.7485 509.909 68.0386C518.387 63.3286 528.064 60.9736 538.94 60.9736C547.931 60.9736 555.724 62.6007 562.318 65.8548C568.912 69.109 573.964 73.6905 577.475 79.5993C580.986 85.5082 582.742 92.3162 582.742 100.023C582.742 110.214 580.387 119.42 575.677 127.641C571.053 135.776 564.502 142.199 556.024 146.909C547.631 151.619 537.998 153.974 527.122 153.974ZM528.92 136.247C535.514 136.247 541.294 134.663 546.261 131.494C551.228 128.326 555.039 124.087 557.694 118.778C560.348 113.468 561.676 107.602 561.676 101.179C561.676 94.3286 559.535 88.8908 555.253 84.8659C550.971 80.7554 544.934 78.7002 537.141 78.7002C530.547 78.7002 524.767 80.2844 519.8 83.4529C514.833 86.6214 511.022 90.8604 508.368 96.1698C505.713 101.479 504.386 107.345 504.386 113.768C504.386 120.619 506.527 126.099 510.808 130.21C515.09 134.235 521.127 136.247 528.92 136.247Z" fill="#FFB800"/>
<path d="M468.451 62.5142L450.596 152.431H431.071L441.604 98.9948L407.307 142.926H398.059L379.561 98.481L368.771 152.431H349.247L367.23 62.5142H384.186L406.665 118.52L450.596 62.5142H468.451Z" fill="#FFB800"/>
<path d="M294.419 79.47H265.645L269.113 62.5142H347.47L344.001 79.47H315.356L300.713 152.431H279.903L294.419 79.47Z" fill="#FFB800"/>
<path d="M201.86 79.2131L198.006 98.7379H239.753L236.542 114.923H194.666L190.556 135.732H239.625L236.157 152.431H166.535L184.519 62.5142H252.47L249.002 79.2131H201.86Z" fill="#FFB800"/>
<path d="M112.182 75.145H143.867L131.45 136.802C123.886 142.654 115.108 147.15 105.117 150.29C95.1266 153.43 84.779 155 74.0746 155C59.0884 155 46.029 152.288 34.8964 146.865C23.7638 141.441 15.1289 133.805 8.99171 123.957C2.99724 114.109 0 102.762 0 89.9171C0 72.9328 3.92495 57.5898 11.7749 43.8881C19.6248 30.1865 30.686 19.482 44.9586 11.7749C59.2311 3.92495 75.6446 0 94.1989 0C108.471 0 120.817 2.21224 131.236 6.63673C141.798 11.0612 150.29 17.5552 156.713 26.1188L131.878 46.2431C126.883 40.3913 121.245 36.1809 114.965 33.6119C108.686 30.9001 101.264 29.5442 92.7003 29.5442C81.2822 29.5442 77.0005 18.8402 68.2943 23.9783C59.588 28.9737 47.0281 49.169 42.1754 58.018C37.4655 66.8669 35.1105 76.7864 35.1105 87.7762C35.1105 99.337 38.8214 108.543 46.2431 115.394C53.8076 122.102 64.5833 125.456 78.5704 125.456C87.4194 125.456 95.6975 123.672 103.405 120.104L112.182 75.145Z" fill="#FFB800"/>
</svg>
