<svg width="16" height="17" viewBox="0 0 16 17" fill="none" xmlns="http://www.w3.org/2000/svg">
<path d="M8.04541 16.4463C6.98584 16.4463 5.98975 16.2437 5.05713 15.8384C4.12451 15.438 3.30176 14.8813 2.58887 14.1685C1.87598 13.4604 1.31689 12.6401 0.911621 11.7075C0.51123 10.7749 0.311035 9.77637 0.311035 8.71191C0.311035 7.65234 0.51123 6.65625 0.911621 5.72363C1.31689 4.79102 1.87354 3.96826 2.58154 3.25537C3.29443 2.54248 4.11719 1.98584 5.0498 1.58545C5.9873 1.18018 6.98584 0.977539 8.04541 0.977539C9.10498 0.977539 10.1011 1.18018 11.0337 1.58545C11.9712 1.98584 12.7939 2.54248 13.502 3.25537C14.2148 3.96826 14.7739 4.79102 15.1792 5.72363C15.5845 6.65625 15.7871 7.65234 15.7871 8.71191C15.7871 9.77637 15.5845 10.7749 15.1792 11.7075C14.7739 12.6401 14.2148 13.4604 13.502 14.1685C12.7939 14.8813 11.9736 15.438 11.041 15.8384C10.1084 16.2437 9.10986 16.4463 8.04541 16.4463ZM12.0664 8.70459C12.0664 8.43115 11.959 8.19434 11.7441 7.99414L9.12207 5.47461C8.95605 5.31836 8.76074 5.24023 8.53613 5.24023C8.32129 5.24023 8.14551 5.31104 8.00879 5.45264C7.87207 5.59424 7.80371 5.77734 7.80371 6.00195C7.80371 6.22168 7.88916 6.40967 8.06006 6.56592L8.91699 7.34961L9.69336 7.9209L8.18457 7.82568H4.84473C4.60547 7.82568 4.40771 7.91113 4.25146 8.08203C4.09521 8.24805 4.01709 8.45557 4.01709 8.70459C4.01709 8.95361 4.09521 9.16357 4.25146 9.33447C4.40771 9.50049 4.60547 9.5835 4.84473 9.5835H8.18457L9.69336 9.49561L8.93896 10.0596L8.06006 10.8506C7.88916 10.9922 7.80371 11.1802 7.80371 11.4146C7.80371 11.6392 7.87207 11.8247 8.00879 11.9712C8.14551 12.1128 8.32129 12.1836 8.53613 12.1836C8.75586 12.1836 8.95117 12.103 9.12207 11.9419L11.7441 9.42236C11.959 9.22217 12.0664 8.98291 12.0664 8.70459Z" fill="#FFB800"/>
</svg>
