<svg width="201" height="37" viewBox="0 0 201 37" fill="none" xmlns="http://www.w3.org/2000/svg">
<circle cx="20.9502" cy="12.1001" r="1.5" fill="#D9D9D9"/>
<path d="M189.083 35.9602C187.423 35.9602 185.833 35.7402 184.313 35.3002C182.793 34.8602 181.573 34.3002 180.653 33.6202L182.633 29.8702C183.593 30.5702 184.673 31.1102 185.873 31.4902C187.073 31.8702 188.303 32.0602 189.563 32.0602C190.903 32.0602 191.963 31.8402 192.743 31.4002C193.523 30.9602 193.913 30.3602 193.913 29.6002C193.913 28.9802 193.603 28.5102 192.983 28.1902C192.363 27.8502 191.373 27.4902 190.013 27.1102C188.653 26.7102 187.543 26.3302 186.683 25.9702C185.823 25.5902 185.073 25.0302 184.433 24.2902C183.813 23.5502 183.503 22.5702 183.503 21.3502C183.503 19.9302 183.893 18.6802 184.673 17.6002C185.473 16.5202 186.593 15.6902 188.033 15.1102C189.493 14.5302 191.183 14.2402 193.103 14.2402C194.523 14.2402 195.863 14.4002 197.123 14.7202C198.383 15.0202 199.463 15.4602 200.363 16.0402L198.533 19.7602C197.753 19.2202 196.873 18.8202 195.893 18.5602C194.913 18.2802 193.893 18.1402 192.833 18.1402C191.453 18.1402 190.363 18.3802 189.563 18.8602C188.763 19.3402 188.363 19.9602 188.363 20.7202C188.363 21.1802 188.533 21.5702 188.873 21.8902C189.213 22.1902 189.643 22.4402 190.163 22.6402C190.683 22.8202 191.413 23.0402 192.353 23.3002C193.693 23.6602 194.793 24.0302 195.653 24.4102C196.513 24.7702 197.243 25.3102 197.843 26.0302C198.463 26.7302 198.773 27.6602 198.773 28.8202C198.773 30.2602 198.373 31.5202 197.573 32.6002C196.773 33.6602 195.643 34.4902 194.183 35.0902C192.723 35.6702 191.023 35.9602 189.083 35.9602Z" fill="white"/>
<path d="M167.886 18.5001L166.986 23.0601H176.736L175.986 26.8401H166.206L165.246 31.7001H176.706L175.896 35.6001H159.636L163.836 14.6001H179.706L178.896 18.5001H167.886Z" fill="white"/>
<path d="M143.731 14.6001H148.621L145.201 31.6401H155.731L154.921 35.6001H139.531L143.731 14.6001Z" fill="white"/>
<path d="M123.108 35.9602C121.008 35.9602 119.188 35.5802 117.648 34.8202C116.108 34.0602 114.928 32.9902 114.108 31.6102C113.288 30.2302 112.878 28.6402 112.878 26.8402C112.878 24.4602 113.418 22.3202 114.498 20.4202C115.598 18.5002 117.128 16.9902 119.088 15.8902C121.068 14.7902 123.328 14.2402 125.868 14.2402C127.968 14.2402 129.788 14.6202 131.328 15.3802C132.868 16.1402 134.048 17.2102 134.868 18.5902C135.688 19.9702 136.098 21.5602 136.098 23.3602C136.098 25.7402 135.548 27.8902 134.448 29.8102C133.368 31.7102 131.838 33.2102 129.858 34.3102C127.898 35.4102 125.648 35.9602 123.108 35.9602ZM123.528 31.8202C125.068 31.8202 126.418 31.4502 127.578 30.7102C128.738 29.9702 129.628 28.9802 130.248 27.7402C130.868 26.5002 131.178 25.1302 131.178 23.6302C131.178 22.0302 130.678 20.7602 129.678 19.8202C128.678 18.8602 127.268 18.3802 125.448 18.3802C123.908 18.3802 122.558 18.7502 121.398 19.4902C120.238 20.2302 119.348 21.2202 118.728 22.4602C118.108 23.7002 117.798 25.0702 117.798 26.5702C117.798 28.1702 118.298 29.4502 119.298 30.4102C120.298 31.3502 121.708 31.8202 123.528 31.8202Z" fill="white"/>
<path d="M109.406 14.6001L105.236 35.6001H100.676L103.136 23.1201L95.1259 33.3801H92.9659L88.6459 23.0001L86.1259 35.6001H81.5659L85.7659 14.6001H89.7259L94.9759 27.6801L105.236 14.6001H109.406Z" fill="white"/>
<path d="M68.761 18.5601H62.041L62.851 14.6001H81.151L80.341 18.5601H73.651L70.231 35.6001H65.371L68.761 18.5601Z" fill="white"/>
<path d="M47.144 18.5001L46.244 23.0601H55.994L55.244 26.8401H45.464L44.504 31.7001H55.964L55.154 35.6001H38.894L43.094 14.6001H58.964L58.154 18.5001H47.144Z" fill="white"/>
<path d="M26.2 17.55H33.6L30.7 31.95C28.9333 33.3167 26.8833 34.3667 24.55 35.1C22.2167 35.8333 19.8 36.2 17.3 36.2C13.8 36.2 10.75 35.5667 8.15 34.3C5.55 33.0333 3.53333 31.25 2.1 28.95C0.7 26.65 0 24 0 21C0 17.0333 0.916667 13.45 2.75 10.25C4.58333 7.05 7.16667 4.55 10.5 2.75C13.8333 0.916667 17.6667 0 22 0C25.3333 0 28.2167 0.516666 30.65 1.55C33.1167 2.58333 35.1 4.1 36.6 6.1L30.8 10.8C29.6333 9.43333 28.3167 8.45 26.85 7.85C25.3833 7.21667 23.65 6.9 21.65 6.9C18.9833 6.9 17.9833 4.4001 15.95 5.6001C13.9167 6.76677 10.9833 11.4833 9.85 13.55C8.75 15.6167 8.2 17.9333 8.2 20.5C8.2 23.2 9.06667 25.35 10.8 26.95C12.5667 28.5167 15.0833 29.3 18.35 29.3C20.4167 29.3 22.35 28.8833 24.15 28.05L26.2 17.55Z" fill="white"/>
</svg>
