<svg width="83" height="83" viewBox="0 0 83 83" fill="none" xmlns="http://www.w3.org/2000/svg">
<rect width="83" height="83" rx="41.5" fill="#3D3FAB"/>
<path d="M42.871 40.1292L32.5605 50.4396" stroke="white" stroke-width="2.6" stroke-linecap="round" stroke-linejoin="round"/>
<path d="M33.6731 42.957L28.6229 41.7641C28.0673 41.6328 27.8719 40.943 28.2744 40.5391L32.2906 36.5228C32.5604 36.253 32.9265 36.0984 33.31 36.0955L37.8381 36.0562" stroke="white" stroke-width="2.6" stroke-linecap="round" stroke-linejoin="round"/>
<path fill-rule="evenodd" clip-rule="evenodd" d="M52.99 37.0884L54.1683 31.4184C54.4892 29.8755 53.1242 28.5105 51.5812 28.8314L45.9112 30.0097C44.2414 30.3568 42.7102 31.1837 41.5056 32.3897L36.8535 37.0403C35.0787 38.8151 33.9237 41.1164 33.5592 43.5999L33.5431 43.7064C33.3127 45.2916 33.8435 46.8914 34.9752 48.0245V48.0245C36.1069 49.1562 37.7081 49.687 39.2933 49.4551L39.3998 49.4391C41.8833 49.0759 44.1846 47.9195 45.9594 46.1447L50.61 41.4941C51.816 40.2895 52.6429 38.7582 52.99 37.0884V37.0884Z" stroke="white" stroke-width="2.6" stroke-linecap="round" stroke-linejoin="round"/>
<path d="M43.5415 30.8745C46.9117 33.1728 49.8269 36.0881 52.1253 39.4583" stroke="white" stroke-width="2.6" stroke-linecap="round" stroke-linejoin="round"/>
<path d="M40.0415 49.3269L41.2344 54.3771C41.3657 54.9327 42.0555 55.1281 42.4594 54.7256L46.4757 50.7094C46.7455 50.4396 46.9 50.0735 46.903 49.69L46.9423 45.1619" stroke="white" stroke-width="2.6" stroke-linecap="round" stroke-linejoin="round"/>
</svg>
