<svg width="83" height="83" viewBox="0 0 83 83" fill="none" xmlns="http://www.w3.org/2000/svg">
<g filter="url(#filter0_i_202_7079)">
<rect width="83" height="83" rx="41.5" fill="white"/>
<path d="M44.4764 38.5237L40.8145 42.1856" stroke="white" stroke-width="2.6" stroke-linecap="round" stroke-linejoin="round"/>
<path fill-rule="evenodd" clip-rule="evenodd" d="M44.418 32.7464V38.5822H50.2537L56.0895 32.7464L52.1985 30.8016L50.2537 26.9106L44.418 32.7464Z" stroke="#FFB800" stroke-width="3" stroke-linecap="round" stroke-linejoin="round"/>
<path d="M40.0408 29.792C33.3857 30.2005 28.2382 35.787 28.3747 42.4533C28.5112 49.1195 33.883 54.4907 40.5492 54.6264C47.2155 54.7622 52.8015 49.6141 53.2092 42.9589" stroke="#FFB800" stroke-width="3" stroke-linecap="round" stroke-linejoin="round"/>
<path d="M47.6423 42.959C47.2501 46.551 44.1507 49.2306 40.5397 49.0996C36.9287 48.9687 34.0316 46.0716 33.9006 42.4605C33.7696 38.8495 36.4492 35.7502 40.0412 35.3579" stroke="#FFB800" stroke-width="3" stroke-linecap="round" stroke-linejoin="round"/>
</g>
<defs>
<filter id="filter0_i_202_7079" x="0" y="0" width="83" height="87" filterUnits="userSpaceOnUse" color-interpolation-filters="sRGB">
<feFlood flood-opacity="0" result="BackgroundImageFix"/>
<feBlend mode="normal" in="SourceGraphic" in2="BackgroundImageFix" result="shape"/>
<feColorMatrix in="SourceAlpha" type="matrix" values="0 0 0 0 0 0 0 0 0 0 0 0 0 0 0 0 0 0 127 0" result="hardAlpha"/>
<feOffset dy="4"/>
<feGaussianBlur stdDeviation="2"/>
<feComposite in2="hardAlpha" operator="arithmetic" k2="-1" k3="1"/>
<feColorMatrix type="matrix" values="0 0 0 0 0 0 0 0 0 0 0 0 0 0 0 0 0 0 0.25 0"/>
<feBlend mode="normal" in2="shape" result="effect1_innerShadow_202_7079"/>
</filter>
</defs>
</svg>
