<svg width="25" height="24" viewBox="0 0 25 24" fill="none" xmlns="http://www.w3.org/2000/svg">
<path fill-rule="evenodd" clip-rule="evenodd" d="M5.88235 0C2.63362 0 0 2.52827 0 5.64706V18.3529C0 21.4717 2.63362 24 5.88235 24H19.1176C22.3664 24 25 21.4717 25 18.3529V5.64706C25 2.52827 22.3664 0 19.1176 0H5.88235ZM12.8902 8.66527C11.6774 9.15973 9.25347 10.1831 5.61842 11.7355C5.02814 11.9656 4.71893 12.1906 4.69078 12.4107C4.64321 12.7827 5.11842 12.9291 5.76554 13.1286C5.85356 13.1557 5.94476 13.1838 6.03826 13.2136C6.67493 13.4165 7.53135 13.6538 7.97657 13.6632C8.38042 13.6718 8.83117 13.5086 9.32881 13.1736C12.7252 10.9264 14.4784 9.79061 14.5884 9.76612C14.6661 9.74885 14.7737 9.72713 14.8466 9.79065C14.9195 9.85417 14.9124 9.97446 14.9046 10.0067C14.8576 10.2034 12.9922 11.9033 12.0268 12.783C11.7259 13.0572 11.5124 13.2517 11.4688 13.2962C11.371 13.3957 11.2714 13.4898 11.1757 13.5803C10.5842 14.1392 10.1406 14.5583 11.2002 15.2427C11.7094 15.5716 12.1169 15.8436 12.5233 16.1149C12.9673 16.4112 13.4101 16.7068 13.983 17.0749C14.1289 17.1686 14.2683 17.2661 14.4041 17.3609C14.9207 17.7219 15.3849 18.0463 15.9583 17.9946C16.2915 17.9645 16.6356 17.6574 16.8104 16.7415C17.2235 14.5769 18.0355 9.88701 18.2231 7.9544C18.2396 7.78508 18.2189 7.56838 18.2023 7.47325C18.1857 7.37813 18.151 7.24259 18.0248 7.14226C17.8754 7.02344 17.6448 6.99838 17.5416 7.00008C17.0726 7.00826 16.3531 7.2535 12.8902 8.66527Z" fill="white"/>
</svg>
