<svg width="25" height="24" viewBox="0 0 25 24" fill="none" xmlns="http://www.w3.org/2000/svg">
<rect x="0.363281" width="24" height="24" rx="12" fill="white"/>
<path d="M5.75696 11.7355C9.24662 10.1831 11.5736 9.15973 12.7379 8.66527C16.0623 7.2535 16.753 7.00826 17.2033 7.00008C17.3023 6.99838 17.5237 7.02344 17.6671 7.14226C17.7882 7.2426 17.8215 7.37813 17.8375 7.47325C17.8534 7.56838 17.8733 7.78508 17.8575 7.9544C17.6774 9.88701 16.8979 14.5769 16.5013 16.7415C16.3335 17.6574 16.0031 17.9645 15.6832 17.9945C14.9881 18.0599 14.4602 17.5255 13.7869 17.0749C12.7334 16.3697 12.1382 15.9308 11.1155 15.2427C9.93363 14.4475 10.6998 14.0104 11.3733 13.2962C11.5496 13.1092 14.6124 10.2648 14.6717 10.0067C14.6791 9.97446 14.686 9.85417 14.616 9.79065C14.546 9.72713 14.4427 9.74885 14.3682 9.76612C14.2625 9.79061 12.5794 10.9264 9.31894 13.1736C8.84121 13.5086 8.40849 13.6718 8.02079 13.6632C7.59338 13.6538 6.77121 13.4165 6.16002 13.2136C5.41036 12.9648 4.81455 12.8333 4.86643 12.4107C4.89345 12.1906 5.1903 11.9656 5.75696 11.7355Z" fill="#3D3C5C"/>
</svg>
