<svg width="25" height="24" viewBox="0 0 25 24" fill="none" xmlns="http://www.w3.org/2000/svg">
<path d="M14.6133 4H10.1133C6.9313 4 5.34031 4 4.3518 5.00421C3.36328 6.00841 3.36328 7.62465 3.36328 10.8571V13.1429C3.36328 16.3753 3.36328 17.9916 4.3518 18.9958C5.34031 20 6.9313 20 10.1133 20H14.6133C17.7953 20 19.3863 20 20.3748 18.9958C21.3633 17.9916 21.3633 16.3753 21.3633 13.1429V10.8571C21.3633 7.62465 21.3633 6.00841 20.3748 5.00421C19.3863 4 17.7953 4 14.6133 4Z" stroke="white" stroke-width="2"/>
<path d="M7.36328 8H10.3633" stroke="white" stroke-width="2" stroke-linecap="round"/>
<path d="M19.3633 16H17.3633C16.4205 16 15.9491 16 15.6562 15.7071C15.3633 15.4142 15.3633 14.9428 15.3633 14C15.3633 13.0572 15.3633 12.5858 15.6562 12.2929C15.9491 12 16.4205 12 17.3633 12H19.3633C20.3061 12 20.7775 12 21.0704 12.2929C21.3633 12.5858 21.3633 13.0572 21.3633 14C21.3633 14.9428 21.3633 15.4142 21.0704 15.7071C20.7775 16 20.3061 16 19.3633 16Z" stroke="white" stroke-width="2"/>
</svg>
