<svg width="24" height="24" viewBox="0 0 24 24" fill="none" xmlns="http://www.w3.org/2000/svg">
<g clip-path="url(#clip0_32_1629)">
<path d="M0 0H24V24H0V0Z" fill="#D80027"/>
<path d="M13.7995 17L13.1822 15.9055L12.043 16.2142L12.8003 15.225L12.183 14.1305L13.2713 14.6146L14.0223 13.6254L13.9395 14.9163L15.0278 15.4004L13.8886 15.7091L13.7995 17ZM17.86 5.971L17.2172 7.05145L17.9555 8.05472L16.829 7.71796L16.1862 8.80543L16.1225 7.5145L14.996 7.17774L16.0907 6.71469L16.027 5.42376L16.7653 6.42703L17.86 5.971ZM14.3978 2L14.2705 3.28391L15.3397 3.81712L14.1941 4.08372L14.0668 5.36763L13.4813 4.24509L12.3421 4.51169L13.1249 3.55051L12.5394 2.43499L13.6086 2.96118L14.3978 2ZM18 11.5697L17.0517 12.3344L17.4208 13.5622L16.4726 12.8045L15.5243 13.5762L15.8807 12.3414L14.9324 11.5907L16.1034 11.5837L16.4598 10.3489L16.829 11.5767L18 11.5697ZM6.68417 3.46632L7.7852 7.21983H11.362L8.47255 9.52806L9.57359 13.2816L6.68417 10.9663L3.78839 13.2816L4.89578 9.52806L2 7.21983H5.58313L6.68417 3.46632Z" fill="#FFDA44"/>
</g>
<defs>
<clipPath id="clip0_32_1629">
<rect width="24" height="24" rx="12" fill="white"/>
</clipPath>
</defs>
</svg>
