<svg width="32" height="32" viewBox="0 0 32 32" fill="none" xmlns="http://www.w3.org/2000/svg">
<path d="M22.9071 15.5138H29.377L26.8415 28.2431C25.2969 29.4512 23.5046 30.3794 21.4645 31.0276C19.4244 31.6759 17.3115 32 15.1257 32C12.0656 32 9.39891 31.4401 7.12568 30.3204C4.85246 29.2007 3.08925 27.6243 1.83607 25.5912C0.612022 23.558 0 21.2155 0 18.5635C0 15.0571 0.801457 11.8895 2.40437 9.06077C4.00729 6.23204 6.26594 4.0221 9.18033 2.43094C12.0947 0.810313 15.4463 0 19.235 0C22.1494 0 24.6703 0.456721 26.7978 1.37016C28.9545 2.28361 30.6885 3.62431 32 5.39226L26.929 9.54696C25.9089 8.33886 24.7577 7.46961 23.4754 6.93923C22.1931 6.37937 20.6776 6.09945 18.929 6.09945C16.5974 6.09945 15.7231 3.88959 13.9454 4.95036C12.1676 5.98167 9.60291 10.151 8.61202 11.9779C7.65027 13.8048 7.1694 15.8527 7.1694 18.1215C7.1694 20.5083 7.92714 22.4088 9.44262 23.8232C10.9872 25.2081 13.1876 25.9006 16.0437 25.9006C17.8506 25.9006 19.541 25.5322 21.1148 24.7956L22.9071 15.5138Z" fill="#FFB800"/>
<ellipse cx="18.3173" cy="10.6961" rx="1.31148" ry="1.32597" fill="#FFB800"/>
</svg>
